<?xml version="1.0" standalone="no"?>
<!DOCTYPE svg PUBLIC "-//W3C//DTD SVG 20010904//EN"
 "http://www.w3.org/TR/2001/REC-SVG-20010904/DTD/svg10.dtd">
<svg version="1.0" xmlns="http://www.w3.org/2000/svg"
 width="500.000000pt" height="500.000000pt" viewBox="0 0 500.000000 500.000000"
 preserveAspectRatio="xMidYMid meet">
<metadata>
Created by potrace 1.14, written by Peter Selinger 2001-2017
</metadata>
<g transform="translate(0.000000,500.000000) scale(0.100000,-0.100000)"
fill="#000000" stroke="none">
<path d="M1373 4499 c-275 -20 -471 -105 -630 -273 -127 -133 -212 -311 -229
-481 -3 -27 -8 -57 -10 -65 -10 -29 -12 -262 -12 -1175 0 -1088 1 -1194 10
-1189 4 3 7 -10 7 -28 -1 -36 25 -160 37 -179 5 -8 3 -10 -5 -4 -8 4 -7 -2 3
-17 9 -14 13 -28 9 -31 -3 -4 -2 -7 3 -7 6 0 16 -17 23 -37 8 -20 27 -59 44
-87 16 -28 30 -56 30 -63 0 -7 4 -10 9 -7 4 3 8 2 8 -3 0 -4 14 -23 31 -40 16
-18 28 -33 25 -33 -4 0 2 -8 12 -18 9 -11 20 -17 24 -15 8 4 12 -12 9 -30 -1
-5 2 -6 7 -3 5 3 21 -4 35 -16 25 -20 25 -22 9 -35 -15 -13 -15 -13 6 -3 24
12 46 5 37 -11 -3 -5 0 -6 7 -4 8 3 24 -4 36 -15 12 -11 25 -21 29 -23 5 -1 7
-6 5 -10 -1 -5 2 -6 7 -3 5 3 23 0 40 -7 25 -11 29 -16 18 -26 -10 -11 -9 -12
7 -4 25 14 133 -21 139 -45 4 -15 5 -15 6 1 1 14 6 17 24 11 12 -4 25 -11 28
-16 4 -6 9 -5 12 3 3 8 6 9 6 3 1 -5 15 -9 31 -8 17 1 30 -1 30 -5 0 -3 18 -5
40 -3 30 3 41 0 46 -12 3 -9 11 -13 16 -10 6 4 5 10 -3 16 -9 6 -1 7 24 3 21
-3 65 -6 97 -6 39 -1 60 -5 60 -12 0 -7 4 -6 9 2 8 13 12 13 27 0 10 -8 15 -9
11 -2 -6 9 18 12 93 11 69 0 100 -3 100 -11 0 -9 2 -9 8 -1 10 17 392 17 392
1 0 -7 4 -6 9 2 8 13 12 13 27 0 10 -8 15 -9 11 -2 -6 9 18 12 93 11 69 0 100
-3 100 -11 0 -9 2 -9 8 -1 10 17 392 17 392 1 0 -7 4 -6 9 2 8 13 12 13 27 0
10 -8 15 -9 11 -2 -6 9 18 12 93 11 69 0 100 -3 100 -11 0 -9 2 -9 8 0 10 15
301 15 321 -1 12 -8 13 -8 7 2 -5 9 9 12 60 12 62 0 65 -1 53 -17 -11 -14 -9
-14 9 1 12 11 38 21 56 22 29 3 33 0 29 -15 -3 -10 -1 -21 4 -24 5 -3 9 4 9
16 -1 17 5 22 24 23 14 1 32 4 40 7 8 3 37 8 64 12 38 5 47 4 41 -7 -3 -7 -1
-6 7 2 18 21 88 42 88 27 0 -8 3 -8 8 -2 4 6 21 18 38 27 24 14 34 15 45 5 7
-7 11 -8 7 -3 -18 22 44 51 75 35 20 -9 21 -9 4 4 -19 16 -7 34 15 21 7 -5 8
-3 3 5 -5 9 -2 12 11 9 11 -2 18 -10 16 -17 -1 -7 2 -9 9 -6 8 5 8 10 0 18
-16 16 -13 30 5 23 8 -3 12 -2 9 3 -7 12 35 42 47 35 5 -3 7 0 6 8 -2 7 3 12
9 11 7 -2 12 1 10 6 -1 5 10 21 26 37 54 56 97 104 99 112 2 4 7 6 11 4 5 -1
6 2 2 8 -10 17 6 34 17 19 8 -11 9 -10 4 3 -6 21 28 101 39 90 4 -4 5 1 2 11
-4 9 -2 17 3 17 6 0 9 3 9 8 -1 4 0 10 1 15 1 4 3 10 4 15 2 4 8 27 15 52 7
25 15 52 16 60 2 8 4 15 5 15 1 0 4 18 6 40 3 22 7 49 9 60 2 11 4 44 4 73 1
38 4 51 13 46 6 -4 8 -3 5 3 -4 5 -8 525 -11 1154 -5 1154 -6 1209 -17 1209
-4 0 -10 21 -14 47 -21 143 -109 306 -231 427 -137 138 -283 208 -519 247 -83
14 -2172 21 -2352 8z"/>
<path d="M866 618 c3 -5 10 -6 15 -3 13 9 11 12 -6 12 -8 0 -12 -4 -9 -9z"/>
<path d="M895 609 c-4 -6 -5 -12 -2 -15 2 -3 7 2 10 11 7 17 1 20 -8 4z"/>
<path d="M1060 546 c0 -2 8 -10 18 -17 15 -13 16 -12 3 4 -13 16 -21 21 -21
13z"/>
<path d="M3880 526 c0 -2 8 -10 18 -17 15 -13 16 -12 3 4 -13 16 -21 21 -21
13z"/>
<path d="M3710 493 c0 -1 8 -7 18 -12 13 -7 19 -6 19 2 0 7 -9 13 -19 13 -10
0 -18 -1 -18 -3z"/>
<path d="M3777 489 c7 -7 15 -10 18 -7 3 3 -2 9 -12 12 -14 6 -15 5 -6 -5z"/>
<path d="M3830 496 c0 -2 8 -10 18 -17 15 -13 16 -12 3 4 -13 16 -21 21 -21
13z"/>
<path d="M1230 485 c0 -7 30 -13 34 -7 3 4 -4 9 -15 9 -10 1 -19 0 -19 -2z"/>
<path d="M1311 487 c2 -2 11 -8 20 -15 12 -9 16 -9 16 1 0 7 -9 14 -20 14 -11
1 -18 1 -16 0z"/>
<path d="M1470 470 c0 -5 5 -10 11 -10 5 0 7 5 4 10 -3 6 -8 10 -11 10 -2 0
-4 -4 -4 -10z"/>
<path d="M1711 467 c-8 -10 -7 -14 2 -14 8 0 14 6 14 14 0 7 -1 13 -2 13 -2 0
-8 -6 -14 -13z"/>
<path d="M1910 470 c-9 -6 -10 -10 -3 -10 6 0 15 5 18 10 8 12 4 12 -15 0z"/>
<path d="M2016 471 c-4 -5 3 -7 14 -4 23 6 26 13 6 13 -8 0 -17 -4 -20 -9z"/>
<path d="M2111 467 c-8 -10 -7 -14 2 -14 8 0 14 6 14 14 0 7 -1 13 -2 13 -2 0
-8 -6 -14 -13z"/>
<path d="M2351 467 c-8 -10 -7 -14 2 -14 8 0 14 6 14 14 0 7 -1 13 -2 13 -2 0
-8 -6 -14 -13z"/>
<path d="M2550 470 c-9 -6 -10 -10 -3 -10 6 0 15 5 18 10 8 12 4 12 -15 0z"/>
<path d="M2656 471 c-4 -5 3 -7 14 -4 23 6 26 13 6 13 -8 0 -17 -4 -20 -9z"/>
<path d="M2751 467 c-8 -10 -7 -14 2 -14 8 0 14 6 14 14 0 7 -1 13 -2 13 -2 0
-8 -6 -14 -13z"/>
<path d="M2991 467 c-8 -10 -7 -14 2 -14 8 0 14 6 14 14 0 7 -1 13 -2 13 -2 0
-8 -6 -14 -13z"/>
<path d="M3190 470 c-9 -6 -10 -10 -3 -10 6 0 15 5 18 10 8 12 4 12 -15 0z"/>
<path d="M3296 471 c-4 -5 3 -7 14 -4 23 6 26 13 6 13 -8 0 -17 -4 -20 -9z"/>
<path d="M3391 467 c-8 -10 -7 -14 2 -14 8 0 14 6 14 14 0 7 -1 13 -2 13 -2 0
-8 -6 -14 -13z"/>
<path d="M1946 458 c3 -4 9 -8 15 -8 5 0 9 4 9 8 0 5 -7 9 -15 9 -8 0 -12 -4
-9 -9z"/>
<path d="M2260 460 c-9 -6 -10 -10 -3 -10 6 0 15 5 18 10 8 12 4 12 -15 0z"/>
<path d="M2586 458 c3 -4 9 -8 15 -8 5 0 9 4 9 8 0 5 -7 9 -15 9 -8 0 -12 -4
-9 -9z"/>
<path d="M2900 460 c-9 -6 -10 -10 -3 -10 6 0 15 5 18 10 8 12 4 12 -15 0z"/>
<path d="M3226 458 c3 -4 9 -8 15 -8 5 0 9 4 9 8 0 5 -7 9 -15 9 -8 0 -12 -4
-9 -9z"/>
<path d="M3467 459 c7 -7 15 -10 18 -7 3 3 -2 9 -12 12 -14 6 -15 5 -6 -5z"/>
<path d="M1536 447 c3 -10 9 -15 12 -12 3 3 0 11 -7 18 -10 9 -11 8 -5 -6z"/>
<path d="M2055 449 c-4 -6 -5 -12 -2 -15 2 -3 7 2 10 11 7 17 1 20 -8 4z"/>
<path d="M2695 449 c-4 -6 -5 -12 -2 -15 2 -3 7 2 10 11 7 17 1 20 -8 4z"/>
<path d="M3335 449 c-4 -6 -5 -12 -2 -15 2 -3 7 2 10 11 7 17 1 20 -8 4z"/>
<path d="M2220 446 c0 -2 8 -10 18 -17 15 -13 16 -12 3 4 -13 16 -21 21 -21
13z"/>
<path d="M2860 446 c0 -2 8 -10 18 -17 15 -13 16 -12 3 4 -13 16 -21 21 -21
13z"/>
<path d="M3565 440 c-3 -6 1 -7 9 -4 18 7 21 14 7 14 -6 0 -13 -4 -16 -10z"/>
</g>
</svg>
